<svg xmlns="http://www.w3.org/2000/svg" xmlns:xlink="http://www.w3.org/1999/xlink" version="1.1" id="Layer_1" x="0px" y="0px" width="100px" height="100px" viewBox="0 0 100 100" enable-background="new 0 0 100 100" xml:space="preserve">
<g>
	<g>
		<path fill="#000000" d="M36.051,85.867c-3.858,0-7.007-3.139-7.02-6.998L28.855,21.26c-0.011-3.871,3.128-7.029,6.998-7.041    l28.073-0.085c3.881,0,7.029,3.139,7.042,6.998l0.176,57.609c0.011,3.871-3.128,7.03-6.998,7.042l-28.073,0.085    C36.071,85.867,36.053,85.867,36.051,85.867z M63.949,17.133l-28.086,0.085c-2.217,0.007-4.015,1.815-4.008,4.032l0.176,57.608    c0.007,2.209,1.811,4.007,4.02,4.007v1.5l0.013-1.5l28.073-0.085c2.217-0.007,4.015-1.816,4.008-4.033L67.969,21.14    C67.962,18.931,66.158,17.133,63.949,17.133z"/>
	</g>
	<g>
		<path fill="#000000" d="M50.075,80.383c-2.863,0-5.2-2.331-5.21-5.195c-0.008-2.874,2.322-5.219,5.194-5.228    c2.882,0,5.221,2.331,5.229,5.196c0.005,1.392-0.533,2.702-1.515,3.689s-2.289,1.533-3.682,1.538    C50.09,80.383,50.077,80.383,50.075,80.383z M50.076,72.96c-1.226,0.004-2.215,0.999-2.211,2.218    c0.004,1.215,0.995,2.205,2.21,2.205v1.5l0.007-1.5c0.592-0.002,1.147-0.233,1.563-0.652s0.645-0.975,0.643-1.565    C52.284,73.949,51.292,72.96,50.076,72.96z"/>
	</g>
	<g>
		<g>
			<path fill="#000000" d="M43.053,24.135c-0.826,0-1.497-0.668-1.5-1.496c-0.003-0.828,0.667-1.502,1.495-1.504l8.743-0.026     c0.002,0,0.004,0,0.005,0c0.826,0,1.497,0.668,1.5,1.496c0.003,0.828-0.667,1.502-1.495,1.504l-8.743,0.026     C43.056,24.135,43.054,24.135,43.053,24.135z"/>
		</g>
		<g>
			<path fill="#000000" d="M56.255,24.095c-0.826,0-1.498-0.669-1.5-1.496c-0.002-0.829,0.667-1.502,1.496-1.504l0.526-0.001     c0.001,0,0.003,0,0.004,0c0.826,0,1.498,0.669,1.5,1.496c0.002,0.829-0.667,1.502-1.496,1.504l-0.526,0.001     C56.258,24.095,56.256,24.095,56.255,24.095z"/>
		</g>
	</g>
</g>
<g>
	<path fill="#000000" d="M21.522,71.636c-0.397,0-0.794-0.157-1.089-0.469l-6.151-6.498c-0.551-0.582-0.548-1.494,0.008-2.071   l5.106-5.312l-5.06-4.817c-0.3-0.286-0.469-0.683-0.466-1.097s0.177-0.809,0.48-1.09l4.98-4.616l-4.995-4.755   c-0.291-0.277-0.458-0.658-0.466-1.059c-0.007-0.401,0.146-0.789,0.427-1.076l6.151-6.296c0.579-0.592,1.53-0.603,2.121-0.024   c0.593,0.579,0.604,1.528,0.025,2.121l-5.09,5.209l5.051,4.808c0.3,0.286,0.469,0.682,0.466,1.097   c-0.003,0.414-0.177,0.809-0.48,1.09l-4.98,4.616l4.995,4.755c0.289,0.275,0.457,0.654,0.466,1.053s-0.143,0.785-0.419,1.073   l-5.159,5.366l5.167,5.459c0.57,0.602,0.544,1.551-0.058,2.121C22.264,71.5,21.893,71.636,21.522,71.636z"/>
</g>
<g>
	<path fill="#000000" d="M17.139,31.668c-0.384,0-0.768-0.146-1.061-0.439c-0.586-0.586-0.586-1.536,0-2.121l5.595-5.594   c0.586-0.586,1.535-0.586,2.121,0s0.586,1.536,0,2.121l-5.595,5.594C17.906,31.522,17.522,31.668,17.139,31.668z"/>
</g>
<g>
	<path fill="#000000" d="M17.139,23.656c-0.384,0-0.768-0.146-1.061-0.439c-0.586-0.585-0.586-1.536,0-2.121l2.447-2.447   c0.586-0.586,1.535-0.586,2.121,0c0.586,0.585,0.586,1.536,0,2.121l-2.447,2.447C17.906,23.509,17.522,23.656,17.139,23.656z"/>
</g>
<g>
	<path fill="#000000" d="M22.733,80.691c-0.384,0-0.768-0.146-1.061-0.439l-5.595-5.594c-0.586-0.585-0.586-1.535,0-2.121   s1.535-0.586,2.121,0l5.595,5.594c0.586,0.585,0.586,1.535,0,2.121C23.501,80.544,23.117,80.691,22.733,80.691z"/>
</g>
<g>
	<path fill="#000000" d="M19.586,85.557c-0.384,0-0.768-0.146-1.061-0.439l-2.447-2.447c-0.586-0.585-0.586-1.536,0-2.121   c0.586-0.586,1.535-0.586,2.121,0l2.447,2.447c0.586,0.585,0.586,1.536,0,2.121C20.354,85.41,19.97,85.557,19.586,85.557z"/>
</g>
<g>
	<path fill="#000000" d="M78.607,71.636c-0.37,0-0.741-0.136-1.031-0.411c-0.602-0.569-0.628-1.519-0.059-2.121l5.167-5.459   l-5.158-5.366c-0.277-0.288-0.428-0.674-0.419-1.073s0.177-0.778,0.466-1.053l4.994-4.755l-4.979-4.616   c-0.304-0.282-0.478-0.676-0.48-1.09s0.166-0.811,0.466-1.097l5.05-4.808l-5.089-5.209c-0.579-0.593-0.567-1.542,0.025-2.121   c0.592-0.579,1.543-0.567,2.121,0.024l6.15,6.296c0.28,0.287,0.434,0.674,0.427,1.076c-0.008,0.401-0.175,0.782-0.466,1.059   l-4.994,4.755l4.979,4.616c0.304,0.282,0.478,0.676,0.48,1.09s-0.166,0.811-0.466,1.097l-5.059,4.817l5.105,5.312   c0.556,0.578,0.559,1.489,0.009,2.071l-6.15,6.498C79.401,71.479,79.005,71.636,78.607,71.636z"/>
</g>
<g>
	<path fill="#000000" d="M82.991,31.668c-0.384,0-0.768-0.146-1.061-0.439l-5.595-5.594c-0.586-0.585-0.586-1.535,0-2.121   s1.535-0.586,2.121,0l5.595,5.594c0.586,0.585,0.586,1.535,0,2.121C83.759,31.522,83.375,31.668,82.991,31.668z"/>
</g>
<g>
	<path fill="#000000" d="M82.991,23.656c-0.384,0-0.768-0.146-1.061-0.439l-2.448-2.447c-0.586-0.586-0.586-1.536,0-2.122   s1.535-0.585,2.121,0l2.448,2.447c0.586,0.586,0.586,1.536,0,2.122C83.759,23.509,83.375,23.656,82.991,23.656z"/>
</g>
<g>
	<path fill="#000000" d="M77.396,80.691c-0.384,0-0.768-0.146-1.061-0.439c-0.586-0.586-0.586-1.536,0-2.121l5.595-5.594   c0.586-0.586,1.535-0.586,2.121,0s0.586,1.536,0,2.121l-5.595,5.594C78.164,80.544,77.78,80.691,77.396,80.691z"/>
</g>
<g>
	<path fill="#000000" d="M80.543,85.557c-0.384,0-0.768-0.146-1.061-0.439c-0.586-0.586-0.586-1.536,0-2.122l2.448-2.447   c0.586-0.585,1.535-0.585,2.121,0s0.586,1.536,0,2.122l-2.448,2.447C81.311,85.41,80.927,85.557,80.543,85.557z"/>
</g>
</svg>